<svg xmlns="http://www.w3.org/2000/svg" viewBox="0 0 63.69 63.68"><g id="Layer_2" data-name="Layer 2"><g id="Layer_1-2" data-name="Layer 1"><path d="M31.78,0A31.84,31.84,0,1,1,0,31.84,31.86,31.86,0,0,1,31.78,0ZM59.22,31.93A27.38,27.38,0,1,0,31.81,59.21,27.41,27.41,0,0,0,59.22,31.93Z"/><path d="M28.63,36.56c0-2.39.05-4.79,0-7.18s1.43-2.83,3.22-2.82,3.32.45,3.31,2.76c0,4.79,0,9.58,0,14.37,0,2.24-1.57,2.72-3.36,2.72s-3.14-.55-3.14-2.66Z"/><path d="M32.24,16.77c1.66.19,3,1.09,2.93,3.06s-1.61,2.85-3.44,2.79a3,3,0,0,1-3.29-3C28.33,18,30.11,16.66,32.24,16.77Z"/></g></g></svg>