<svg xmlns="http://www.w3.org/2000/svg" viewBox="0 0 489.8 509.7"><defs><style>.cls-1{fill:#1b4949;}.cls-2{fill:#27a66c;}.cls-3{fill:#fefefe;}</style></defs><g id="Layer_2" data-name="Layer 2"><g id="Layer_1-2" data-name="Layer 1"><path class="cls-1" d="M339.14,479c15.49-6,29.61-14.44,42.86-24.26,54.85-40.67,88.27-94.76,95.46-162.68,9.28-87.65-22.4-159.2-91.47-213.92-4.94-3.92-4.83-8.26-4.73-13.08.07-3.13,2.25-2.2,3.84-1C391.44,69,398,73.61,404,78.84c46.91,40.75,75.44,91.81,83.59,153.47A244.13,244.13,0,0,1,303.2,502.69c-133.26,32.06-264.57-48.8-296.56-182C-25.43,187.13,62,51.27,197,24.87A246.1,246.1,0,0,1,302.58,27c1.68.4,4.12.08,4.5,2.33.32,1.86-2,2.42-3,3.67-2.84,3.53-6.22,3.81-10.54,2.87C168.74,8.5,42.55,90.05,16.1,215-6.37,321.16,44.73,427,141.7,475.09c1.63.81,3.35,1.44,5,2.16l1.18.44-.09-1.26q-10.38-52.38-20.74-104.75c-2.16-10.94-4.23-21.89-6.47-32.82-4.6-22.46,10.41-41,33.45-41.05,26.32-.07,52.64,0,78.95-.05l10,0q44.72,0,89.44,0c24,0,38.78,18.24,34.11,41.76C358,383,349.5,426.4,340.92,469.82c-.57,2.92-1.56,5.76-2.36,8.64-.1.35-.38.93-.27,1C338.72,479.82,339,479.5,339.14,479Z"/><path class="cls-2" d="M339.21,103.07c-14.36,22.9-30,44.76-49.34,63.85-5.22,5.17-10.82,9.88-16.37,14.66-2.92,2.51-4.08,1.9-5.23-1.58-14.76-44.27-9-85.32,19.4-122.7A130.18,130.18,0,0,1,333,19.63c12.46-6.34,24.94-12.62,38-17.71A49.49,49.49,0,0,1,375.67.34c3.32-.94,4.75,0,4,3.7-1.33,6.18-2.7,12.36-3.62,18.6-2.48,16.8-.26,33.59.59,50.35,2.87,56.71-30.44,102.4-85.25,116.34-2.81.71-5.68,1.17-9.93,2,25.56-26.2,44-55.46,58.79-87.15a12.32,12.32,0,0,0,2.87-6.46C340.77,99.18,340,101.16,339.21,103.07Zm5.87-9c-1.11.25-1.15,1.06-1,2l-.8.27c.14.17.27.35.41.53L344,96c.93-.35.93-1.18,1-2a7.11,7.11,0,0,0,.55-.68c0-.06-.07-.22-.11-.33C345.33,93.36,345.21,93.72,345.08,94.08Z"/><path class="cls-2" d="M227.74,272.31c-12.13-15.76-25.36-28.27-41-38.31,12.92,13.89,26.25,27.38,35.44,44.82-23.94,5-45.71,1.35-65.33-12.8A83.15,83.15,0,0,1,126,223.58a240.47,240.47,0,0,1-7.31-25.39c-.31-1.45-1.08-3.07,0-4.29,1.34-1.49,2.82,0,4.06.52,12.59,5.57,26.1,6.56,39.51,7.47,43.71,3,63.83,38,65.51,66.51C227.78,269.21,227.74,270,227.74,272.31ZM184.6,231.44A.85.85,0,0,0,184,231c-.76-1.35-2.15-1.88-3.4-2.59a14.11,14.11,0,0,0-6.14-3.32l5.39,4.11,3.23,2.67a.76.76,0,0,0,.68.44c.64.84,1.4,2.51,2.4,1.47S185.45,232.05,184.6,231.44Z"/><path class="cls-2" d="M297.22,230.75A188.39,188.39,0,0,0,246.57,262a65.23,65.23,0,0,1,13.1-28.83c16.16-20.65,37.23-29.69,63.49-26.74,14.18,1.59,28.4,4.06,42.68.62,3.18-.76,4.08.74,2.89,3.48-14.12,32.69-33.72,59.55-71.88,65.88-14.57,2.42-28.81.38-42.61-5-3.36-1.31-3.58-2.39-1.19-5,11.21-12,24.23-21.76,38.16-30.36,2.23-1.37,4.49-2.7,6.73-4.05Z"/><path class="cls-2" d="M218.05,161c5.47,14.31,10.57,28.73,12.49,44,.28,2.29.45,4.59.73,7.55-12.07-2.29-22.64-6.81-31.81-14.07-25.48-20.18-34.19-47-30-78.54.94-7.09,1.68-14.22,3.55-21.16.6-2.25,1.55-4.11,3.86-1.4,8.75,10.25,20.32,16.62,31.8,23,16.57,9.24,28.71,22,33.75,40.7a70.15,70.15,0,0,1-2.35,45,25.71,25.71,0,0,1-1.42,2.47A173.46,173.46,0,0,0,220,161c-1.43-3.68-3.19-7.15-6.64-9.53Z"/><path class="cls-2" d="M243,297.8l-10,0c-.69-11.26-2-22.5-.95-33.82,2.07-21.91,8.42-42,24.4-58a44.49,44.49,0,0,1,13.62-9.6C246.56,226.35,242.36,261.44,243,297.8Z"/><path class="cls-3" d="M147.81,476.43l.09,1.26-1.18-.44Z"/></g></g></svg>