<svg xmlns="http://www.w3.org/2000/svg" viewBox="0 0 182.49 191.18"><g id="Layer_2" data-name="Layer 2"><g id="Layer_1-2" data-name="Layer 1"><path d="M91.24,191.18q-38.49,0-77,0a37.46,37.46,0,0,1-5-.44c-8-1.09-10.13-6.71-9-13.1,4-22.84,14-42.5,31.18-58.32a88.84,88.84,0,0,1,26.73-17.1,6.25,6.25,0,0,1,4.63.28c13.1,6.67,26.75,8.73,41.17,5.63a65.36,65.36,0,0,0,16.3-6,5.34,5.34,0,0,1,4,.1c21.07,9,36.7,24,47.45,44.09a101.79,101.79,0,0,1,10.46,31.34c.95,5.64-.62,9.94-4.76,11.8a20.81,20.81,0,0,1-8.22,1.69C143.24,191.22,117.24,191.17,91.24,191.18Z"/><path d="M90.84,95.7a47.57,47.57,0,0,1-47.65-48C43.33,21.18,64.87-.33,91.31,0a47.85,47.85,0,1,1-.47,95.7Z"/></g></g></svg>